<svg xmlns="http://www.w3.org/2000/svg" viewBox="0 0 24 24">
	<path d="M21.8182 10.9091V4.3636L12 0 2.1818 4.3636v6.5455C2.1818 16.9636 6.3709 22.6255 12 24c5.6291-1.3745 9.8182-7.0364 9.8182-13.0909" fill="black"/>
	<path d="M12 7.6364a1.0909 1.0909 90 011.0909 1.0909A1.0909 1.0909 90 0112 9.8182 1.0909 1.0909 90 0110.9091 8.7273 1.0909 1.0909 90 0112 7.6364m0-2.1818A3.2727 3.2727 90 008.7273 8.7273c0 1.4291.9055 2.64 2.1818 3.0873v6.7309h2.1818V16.3636h2.1818V14.1818H13.0909V11.8145c1.2764-.4473 2.1818-1.6582 2.1818-3.0873A3.2727 3.2727 90 0012 5.4545Z" fill="white"/>
</svg>
